<?xml version="1.0" encoding="UTF-8"?>
<!DOCTYPE svg PUBLIC "-//W3C//DTD SVG 1.1//EN" "http://www.w3.org/Graphics/SVG/1.1/DTD/svg11.dtd">
<!-- Creator: CorelDRAW 2017 -->
<svg xmlns="http://www.w3.org/2000/svg" xml:space="preserve" width="210mm" height="297mm" version="1.1" style="shape-rendering:geometricPrecision; text-rendering:geometricPrecision; image-rendering:optimizeQuality; fill-rule:evenodd; clip-rule:evenodd"
viewBox="0 0 21000 29700"
 xmlns:xlink="http://www.w3.org/1999/xlink">
 <defs>
  <style type="text/css">
   <![CDATA[
    .fil0 {fill:white}
   ]]>
  </style>
 </defs>
 <g id="Слой_x0020_1">
  <metadata id="CorelCorpID_0Corel-Layer"/>
  <path class="fil0" d="M390.25 245.23c-84.25,0 -167.53,56.55 -167.53,148.08 0,58.2 32.52,91.27 52.23,91.27 8.13,0 12.81,-22.82 12.81,-29.27 0,-7.69 -19.46,-24.06 -19.46,-56.05 0,-66.47 50.26,-113.6 115.3,-113.6 55.92,0 97.32,32 97.32,90.78 0,43.9 -17.5,126.25 -74.16,126.25 -20.45,0 -37.94,-14.88 -37.94,-36.21 0,-31.26 21.67,-61.52 21.67,-93.76 0,-54.73 -77.1,-44.81 -77.1,21.34 0,13.88 1.72,29.26 7.88,41.91 -11.33,49.11 -34.49,122.28 -34.49,172.89 0,15.62 2.22,31 3.7,46.63 2.79,3.14 1.39,2.81 5.66,1.24 41.39,-57.05 39.92,-68.22 58.64,-142.88 10.1,19.35 36.21,29.77 56.9,29.77 87.22,0 126.4,-85.58 126.4,-162.71 0,-82.1 -70.47,-135.68 -147.83,-135.68z"/>
 </g>
</svg>
