<?xml version="1.0" encoding="UTF-8"?>
<!DOCTYPE svg PUBLIC "-//W3C//DTD SVG 1.1//EN" "http://www.w3.org/Graphics/SVG/1.1/DTD/svg11.dtd">
<!-- Creator: CorelDRAW 2017 -->
<svg xmlns="http://www.w3.org/2000/svg" xml:space="preserve" width="210mm" height="297mm" version="1.1" style="shape-rendering:geometricPrecision; text-rendering:geometricPrecision; image-rendering:optimizeQuality; fill-rule:evenodd; clip-rule:evenodd"
viewBox="0 0 21000 29700"
 xmlns:xlink="http://www.w3.org/1999/xlink">
 <defs>
  <style type="text/css">
   <![CDATA[
    .fil0 {fill:white}
   ]]>
  </style>
 </defs>
 <g id="Слой_x0020_1">
  <metadata id="CorelCorpID_0Corel-Layer"/>
  <path class="fil0" d="M1018.01 487.98c0.27,3.76 0.27,7.52 0.27,11.28 0,114.69 -86.71,246.85 -245.18,246.85 -48.83,0 -94.19,-14.24 -132.34,-38.95 6.94,0.8 13.61,1.07 20.81,1.07 40.29,0 77.37,-13.7 106.99,-37.07 -37.89,-0.8 -69.64,-25.78 -80.58,-60.17 5.34,0.81 10.68,1.35 16.28,1.35 7.74,0 15.47,-1.08 22.68,-2.96 -39.49,-8.06 -69.11,-42.97 -69.11,-85.14l0 -1.07c11.48,6.44 24.82,10.47 38.96,11.01 -23.21,-15.58 -38.42,-42.17 -38.42,-72.26 0,-16.11 4.27,-30.89 11.74,-43.78 42.42,52.65 106.19,87.03 177.68,90.79 -1.33,-6.45 -2.13,-13.16 -2.13,-19.88 0,-47.81 38.42,-86.76 86.17,-86.76 24.82,0 47.23,10.48 62.97,27.4 19.48,-3.76 38.15,-11.01 54.69,-20.95 -6.4,20.15 -20.01,37.07 -37.88,47.81 17.34,-1.88 34.15,-6.71 49.62,-13.43 -11.73,17.19 -26.41,32.5 -43.22,44.86z"/>
 </g>
</svg>
